<?xml version="1.0" encoding="utf-8"?>
<!-- Generator: Adobe Illustrator 24.0.0, SVG Export Plug-In . SVG Version: 6.00 Build 0)  -->
<svg version="1.1" id="Layer_1" xmlns="http://www.w3.org/2000/svg" xmlns:xlink="http://www.w3.org/1999/xlink" x="0px" y="0px"
	 viewBox="0 0 500 500" style="enable-background:new 0 0 500 500;" xml:space="preserve">
<style type="text/css">
	.st0{fill:#FFFFFF;stroke:#000000;stroke-miterlimit:10;}
</style>
<path class="st0" d="M114.05,79"/>
<path d="M124.32,196.23"/>
<path d="M200.17,173.87h-79.18V119.3c0-30.09,24.39-54.48,54.48-54.48h24.71V173.87z"/>
<ellipse cx="297.68" cy="344.1" rx="65.6" ry="67.67"/>
<polygon points="287.79,325.03 211.67,394.81 110.25,277.1 186.36,207.32 "/>
<path d="M219.83,41.61l14.1,0.06c82.28,0.33,35.46,100.08,130.62,154.74c20.08,11.53,32.27,33.65,32.18,57.36L396.69,264L219,263.3
	L219.83,41.61z"/>
<path d="M317.42,491.65h-62.81c-32.58,0-62.52-13.31-83.82-34.49c-35.06-34.85-104.1-21.8-104.1-65.67v-30.99h366.62v31.6
	C433.31,447.08,381.42,491.65,317.42,491.65z"/>
</svg>
